<?xml version="1.0" encoding="iso-8859-1"?>
<!-- Generator: Adobe Illustrator 17.0.0, SVG Export Plug-In . SVG Version: 6.00 Build 0)  -->
<!DOCTYPE svg PUBLIC "-//W3C//DTD SVG 1.1//EN" "http://www.w3.org/Graphics/SVG/1.1/DTD/svg11.dtd">
<svg version="1.1" id="&#x421;&#x43B;&#x43E;&#x439;_1"
	 xmlns="http://www.w3.org/2000/svg" xmlns:xlink="http://www.w3.org/1999/xlink" x="0px" y="0px" width="40px" height="27px"
	 viewBox="0 0 40 27" style="enable-background:new 0 0 40 27;" xml:space="preserve">
<g>
	<path style="fill:#8596A4;" d="M20,5c10.621,0,16.019,7.221,17.654,9.896C35.726,17.557,29.483,25,20,25
		c-9.433,0-15.704-7.437-17.647-10.1C4.003,12.24,9.464,5,20,5 M20,3C5.75,3,0,15,0,15s7.25,12,20,12s20-12,20-12S34.25,3,20,3L20,3
		z"/>
	<path style="fill:#8596A4;" d="M20,9c3.309,0,6,2.692,6,6s-2.691,6-6,6s-6-2.692-6-6S16.691,9,20,9 M20,7c-4.418,0-8,3.582-8,8
		s3.582,8,8,8s8-3.582,8-8S24.418,7,20,7L20,7z"/>
</g>
</svg>
