<?xml version="1.0" encoding="iso-8859-1"?>
<!-- Generator: Adobe Illustrator 17.0.0, SVG Export Plug-In . SVG Version: 6.00 Build 0)  -->
<!DOCTYPE svg PUBLIC "-//W3C//DTD SVG 1.1//EN" "http://www.w3.org/Graphics/SVG/1.1/DTD/svg11.dtd">
<svg version="1.1" id="&#x421;&#x43B;&#x43E;&#x439;_1"
	 xmlns="http://www.w3.org/2000/svg" xmlns:xlink="http://www.w3.org/1999/xlink" x="0px" y="0px" width="80px" height="80px"
	 viewBox="0 0 80 80" style="enable-background:new 0 0 80 80;" xml:space="preserve">
<g>
	<circle id="XMLID_101_" style="fill:#E62B33;" cx="40" cy="39.999" r="40"/>
	<g>
		<path id="XMLID_100_" style="fill:#FFFFFF;" d="M60.64,37.388c-0.324,0-0.641,0-0.97,0c0-0.067,0-0.13,0-0.191
			c0-0.253,0-0.465,0-0.673c0.002-1.232,0.018-2.462-0.012-3.696c-0.005-0.2-0.212-0.565-0.337-0.568
			c-1.125-0.044-2.252-0.027-3.441-0.027c0,1.476,0,2.877,0,4.301c0,0.282,0,0.561,0,0.841c-1.723,0-3.383,0-5.161,0
			c0,0.385-0.01,0.648,0.001,0.905c0.038,0.932,0.082,1.864,0.124,2.794c0.909,0.032,1.82,0.074,2.73,0.094
			c0.76,0.013,1.52,0.001,2.363,0.001c0,1.773,0,3.424,0,5.074c1.265,0,2.441,0,3.72,0c0-1.682,0-3.336,0-5.086
			c1.751,0,3.404,0,5.088,0c0-0.981,0-1.905,0-2.85c0-0.305,0-0.609,0-0.92C63.377,37.388,62.024,37.388,60.64,37.388z"/>
		<path id="XMLID_99_" style="fill:#FFFFFF;" d="M46.032,36.956c-3.215,0.042-6.428,0.018-9.641,0.018
			c-0.918,0-1.838-0.016-2.755,0.019c-0.175,0.005-0.488,0.215-0.488,0.336c-0.033,1.851-0.023,3.704-0.023,5.656
			c2.652,0,5.219,0,7.873,0c-0.105,0.383-0.17,0.658-0.259,0.927c-1.209,3.58-4.906,5.354-8.869,4.704
			c-4.922-0.807-7.985-5.371-7.111-10.302c0.124-0.697,0.343-1.357,0.625-1.981c1.626-3.579,5.652-5.752,9.636-4.881
			c1.427,0.311,2.645,1.003,3.697,1.92c1.431-1.443,2.822-2.845,4.304-4.341c-0.096-0.075-0.234-0.173-0.361-0.279
			c-3.473-2.934-7.464-4.012-11.934-3.279c-6.426,1.05-11.047,6.11-12.082,12.022c-0.441,2.527-0.233,5.209,0.776,7.8
			c2.445,6.279,8.76,10.105,15.506,9.364c3.293-0.364,6.234-1.552,8.534-4.004c3.39-3.609,4.26-7.977,3.721-12.759
			C47.091,37.097,46.767,36.947,46.032,36.956z"/>
	</g>
</g>
</svg>
