<?xml version="1.0" encoding="iso-8859-1"?>
<!-- Generator: Adobe Illustrator 17.0.0, SVG Export Plug-In . SVG Version: 6.00 Build 0)  -->
<!DOCTYPE svg PUBLIC "-//W3C//DTD SVG 1.1//EN" "http://www.w3.org/Graphics/SVG/1.1/DTD/svg11.dtd">
<svg version="1.1" id="&#x421;&#x43B;&#x43E;&#x439;_1"
	 xmlns="http://www.w3.org/2000/svg" xmlns:xlink="http://www.w3.org/1999/xlink" x="0px" y="0px" width="80px" height="80.002px"
	 viewBox="0 0 80 80.002" style="enable-background:new 0 0 80 80.002;" xml:space="preserve">
<g>
	<circle id="XMLID_94_" style="fill:#2797CF;" cx="40" cy="40.001" r="40"/>
	<g>
		<polygon id="XMLID_82_" style="fill:#FFFFFF;" points="20.414,35.641 20.414,55.23 29.749,55.23 29.749,34.066 29.749,28.565 
			20.414,28.565 		"/>
		<circle id="XMLID_81_" style="fill:#FFFFFF;" cx="25.082" cy="19.898" r="4.666"/>
		<path id="XMLID_78_" style="fill:#FFFFFF;" d="M60.21,36.752c-0.632-5.026-2.94-8.187-9.736-8.187
			c-4.03,0-6.737,1.497-7.843,3.598h-0.115v-3.598h-7.434v5.116V55.23h7.77V42.014c0-3.486,0.658-6.86,4.969-6.86
			c4.248,0,4.59,3.985,4.59,7.085V55.23h8.001V40.577h0.001C60.414,39.21,60.358,37.93,60.21,36.752z"/>
	</g>
</g>
</svg>
