<?xml version="1.0" encoding="iso-8859-1"?>
<!-- Generator: Adobe Illustrator 17.0.0, SVG Export Plug-In . SVG Version: 6.00 Build 0)  -->
<!DOCTYPE svg PUBLIC "-//W3C//DTD SVG 1.1//EN" "http://www.w3.org/Graphics/SVG/1.1/DTD/svg11.dtd">
<svg version="1.1" id="&#x421;&#x43B;&#x43E;&#x439;_1"
	 xmlns="http://www.w3.org/2000/svg" xmlns:xlink="http://www.w3.org/1999/xlink" x="0px" y="0px" width="67.272px"
	 height="80.319px" viewBox="286 197.5 67.272 80.319" style="enable-background:new 286 197.5 67.272 80.319;"
	 xml:space="preserve">
<symbol  id="New_Symbol_6" viewBox="-34 -37.819 68 75.638">
	<g>
		<path style="fill:#47C6E5;" d="M30.278,19.224c-3.091,6.364-8.27,11.598-14.692,14.873c-4.629,2.361-9.9,3.708-15.5,3.722
			c-11.1,0.03-20.946-5.165-27.046-13.182c-1.247-1.639-2.335-3.398-3.248-5.253c9.426,3.059,19.619,4.722,30.258,4.693
			C10.687,24.049,20.87,22.333,30.278,19.224z"/>
		<g>
			<path style="fill:#0099D8;" d="M-33.433,5.655c-0.002-0.861,0.047-1.741,0.143-2.635c9.939,4.621,21.273,7.228,33.302,7.196
				c12.027-0.032,23.346-2.699,33.259-7.372c0.095,0.891,0.159,1.773,0.161,2.632c0.008,3.115-0.45,6.124-1.297,8.976
				c-0.49,1.649-1.115,3.242-1.858,4.772c-9.408,3.109-19.591,4.825-30.228,4.854c-10.638,0.028-20.832-1.634-30.258-4.693
				c-1.407-2.859-2.395-5.949-2.877-9.197C-33.305,8.706-33.428,7.194-33.433,5.655z"/>
		</g>
		<path style="fill:#0080C4;" d="M-33.289,3.02c0.288-2.667,0.999-5.464,2.034-8.289c0.665-1.813,1.469-3.636,2.376-5.446
			c8.405,4.509,18.286,7.098,28.854,7.069c10.653-0.028,20.593-2.713,29.017-7.335c1.527,3.136,2.734,6.32,3.501,9.413
			c0.371,1.499,0.626,2.971,0.779,4.411c-9.913,4.673-21.232,7.34-33.259,7.372C-12.016,10.248-23.35,7.642-33.289,3.02z"/>
		<path style="fill:#FFA840;" d="M-0.062-17.506c7.885-0.021,15.219-2.084,21.373-5.606c2.958,3.729,5.613,7.886,7.68,12.133
			C20.568-6.358,10.629-3.674-0.025-3.645c-10.568,0.028-20.449-2.56-28.854-7.069c2.115-4.217,4.816-8.351,7.789-12.074
			C-14.994-19.428-7.788-17.486-0.062-17.506z"/>
		<path style="fill:#FF8D1A;" d="M-21.089-22.788c6.884-8.617,15.205-15.016,20.973-15.031c6.432-0.017,14.706,6.232,21.428,14.706
			c-6.155,3.522-13.488,5.585-21.373,5.606C-7.788-17.486-14.994-19.428-21.089-22.788z"/>
		<path style="fill:#FFFFFF;" d="M15.968-14.533l-2.578,0.007c-1.491,0.004-2.877,1.203-2.873,2.642l0.03,11.352
			c0.003,1.08-0.498,2.081-1.463,2.63l-5.741,3.29C2.552,5.839,1.617,5.933,0.747,5.647l-8.779-2.949
			c-1.275-0.419-2.17-1.573-2.173-2.872l-0.031-11.762c-0.004-1.439-1.121-2.524-2.612-2.52l-2.578,0.007
			c-1.491,0.004-2.537,1.095-2.533,2.534l0.037,13.969c0.009,3.265,2.086,6.165,5.29,7.218l12.261,4.118
			c2.187,0.719,4.571,0.481,6.562-0.651l8.65-4.912c2.424-1.379,3.923-3.894,3.916-6.609l-0.035-13.124
			C18.719-13.345,17.459-14.537,15.968-14.533z"/>
		<path style="fill:#FFFFFF;" d="M-13.622,10.841l0.754,0.223c1.575,0.506,2.698,1.925,2.703,3.527l0.011,3.988
			c0.002,0.929-0.886,1.625-1.829,1.436l-5.059-0.988c-0.702-0.14-1.318-0.736-1.32-1.428l-0.023-8.678
			c-0.001-0.465,0.573-0.714,0.927-0.399C-16.306,9.549-15.104,10.354-13.622,10.841z"/>
	</g>
	<polygon style="display:none;fill:none;" points="-34,37 34,37 34,-37 -34,-37 	"/>
</symbol>
<use xlink:href="#New_Symbol_6"  width="68" height="75.638" x="-34" y="-37.819" transform="matrix(1 0 0 -1 320 240)" style="overflow:visible;"/>
</svg>
