<?xml version="1.0" encoding="iso-8859-1"?>
<!-- Generator: Adobe Illustrator 17.0.0, SVG Export Plug-In . SVG Version: 6.00 Build 0)  -->
<!DOCTYPE svg PUBLIC "-//W3C//DTD SVG 1.1//EN" "http://www.w3.org/Graphics/SVG/1.1/DTD/svg11.dtd">
<svg version="1.1" id="&#x421;&#x43B;&#x43E;&#x439;_1"
	 xmlns="http://www.w3.org/2000/svg" xmlns:xlink="http://www.w3.org/1999/xlink" x="0px" y="0px" width="42.543px"
	 height="45.434px" viewBox="301.457 215.833 42.543 45.434" style="enable-background:new 301.457 215.833 42.543 45.434;"
	 xml:space="preserve">
<path style="fill:#8596A4;" d="M342.936,254.927l-11.806-11.806c2.618-4.3,3.23-9.953,0.543-15.668
	c-1.426-3.035-3.896-5.513-6.925-6.951c-14.288-6.783-28.252,7.127-21.572,21.416c1.415,3.026,3.864,5.504,6.873,6.956
	c5.652,2.727,11.25,2.185,15.551-0.327l11.515,11.515c1.607,1.607,4.213,1.608,5.821,0.001l0,0
	C344.354,258.645,344.355,256.345,342.936,254.927z M307.8,240.249c-5.438-10.293,4.895-20.619,15.182-15.168
	c1.733,0.918,3.179,2.366,4.094,4.101c5.424,10.283-4.891,20.596-15.175,15.167C310.165,243.433,308.717,241.984,307.8,240.249z"/>
</svg>
